<svg width="247" height="57" viewBox="0 0 247 57" fill="none" xmlns="http://www.w3.org/2000/svg">
<rect x="1" width="245" height="54" rx="6" fill="#E5EBFF"/>
<g filter="url(#filter0_dd)">
<rect x="4" y="3" width="239" height="48" rx="4" fill="white"/>
</g>
<path d="M56.9613 29.9688C57.0863 31.9844 58.7659 33.2734 61.2659 33.2734C63.9378 33.2734 65.6097 31.9219 65.6097 29.7656C65.6097 28.0703 64.6566 27.1328 62.3441 26.5938L61.1019 26.2891C59.6331 25.9453 59.0394 25.4844 59.0394 24.6797C59.0394 23.6641 59.9613 23 61.3441 23C62.6566 23 63.5628 23.6484 63.7269 24.6875H65.43C65.3284 22.7891 63.6566 21.4531 61.3675 21.4531C58.9066 21.4531 57.2659 22.7891 57.2659 24.7969C57.2659 26.4531 58.1956 27.4375 60.2347 27.9141L61.6878 28.2656C63.18 28.6172 63.8363 29.1328 63.8363 29.9922C63.8363 30.9922 62.805 31.7188 61.3988 31.7188C59.8909 31.7188 58.8441 31.0391 58.6956 29.9688H56.9613ZM67.4303 33H69.1022V24.4922H67.4303V33ZM68.2663 23.0156C68.8522 23.0156 69.3288 22.5234 69.3288 21.9219C69.3288 21.3125 68.8522 20.8203 68.2663 20.8203C67.6803 20.8203 67.2038 21.3125 67.2038 21.9219C67.2038 22.5234 67.6803 23.0156 68.2663 23.0156ZM74.8134 31.4219C73.3681 31.4219 72.5556 30.3359 72.5556 28.6406C72.5556 26.9453 73.3681 25.8594 74.8134 25.8594C76.2431 25.8594 77.1181 26.9453 77.1181 28.6406C77.1181 30.3438 76.2509 31.4219 74.8134 31.4219ZM74.8369 36.25C77.2431 36.25 78.7666 35.0156 78.7666 33.0703V24.4922H77.1572V25.8516H77.0244C76.5478 24.9297 75.5244 24.3516 74.3525 24.3516C72.1806 24.3516 70.8212 26.0547 70.8212 28.6484C70.8212 31.1953 72.165 32.875 74.3369 32.875C75.5087 32.875 76.4462 32.3672 76.9619 31.4453H77.0869V33.0781C77.0869 34.2031 76.2587 34.8672 74.8603 34.8672C73.7275 34.8672 73.0166 34.4688 72.8759 33.8516H71.1572C71.3369 35.2969 72.7119 36.25 74.8369 36.25ZM80.8841 33H82.5638V28.0234C82.5638 26.6953 83.3528 25.8672 84.595 25.8672C85.8372 25.8672 86.4309 26.5469 86.4309 27.9141V33H88.1106V27.4922C88.1106 25.4688 87.0638 24.3281 85.1653 24.3281C83.8841 24.3281 83.0403 24.8984 82.6263 25.8438H82.5013V24.4922H80.8841V33ZM94.2441 33H95.9159V24.4922H94.2441V33ZM95.08 23.0156C95.6659 23.0156 96.1425 22.5234 96.1425 21.9219C96.1425 21.3125 95.6659 20.8203 95.08 20.8203C94.4941 20.8203 94.0175 21.3125 94.0175 21.9219C94.0175 22.5234 94.4941 23.0156 95.08 23.0156ZM98.0647 33H99.7444V28.0234C99.7444 26.6953 100.533 25.8672 101.776 25.8672C103.018 25.8672 103.612 26.5469 103.612 27.9141V33H105.291V27.4922C105.291 25.4688 104.244 24.3281 102.346 24.3281C101.065 24.3281 100.221 24.8984 99.8069 25.8438H99.6819V24.4922H98.0647V33ZM122.472 24.4922H120.792L119.276 30.9844H119.143L117.393 24.4922H115.784L114.034 30.9844H113.909L112.386 24.4922H110.682L113.026 33H114.753L116.503 26.7344H116.636L118.393 33H120.136L122.472 24.4922ZM123.917 33H125.589V24.4922H123.917V33ZM124.753 23.0156C125.339 23.0156 125.816 22.5234 125.816 21.9219C125.816 21.3125 125.339 20.8203 124.753 20.8203C124.167 20.8203 123.691 21.3125 123.691 21.9219C123.691 22.5234 124.167 23.0156 124.753 23.0156ZM128.332 22.375V24.5312H126.98V25.9453H128.332V30.75C128.332 32.3906 129.074 33.0469 130.941 33.0469C131.269 33.0469 131.582 33.0078 131.855 32.9609V31.5625C131.621 31.5859 131.472 31.6016 131.214 31.6016C130.378 31.6016 130.011 31.2109 130.011 30.3203V25.9453H131.855V24.5312H130.011V22.375H128.332ZM133.59 33H135.269V28.0312C135.269 26.7422 136.035 25.875 137.41 25.875C138.598 25.875 139.23 26.5625 139.23 27.9219V33H140.91V27.5078C140.91 25.4844 139.793 24.3359 137.98 24.3359C136.699 24.3359 135.801 24.9062 135.387 25.8594H135.254V21.1719H133.59V33ZM151.84 33C154.247 33 155.692 31.7891 155.692 29.8047C155.692 28.3359 154.676 27.25 153.153 27.0938V26.9609C154.262 26.7734 155.129 25.7188 155.129 24.5391C155.129 22.8047 153.856 21.7266 151.739 21.7266H147.207V33H151.84ZM148.957 23.2109H151.332C152.629 23.2109 153.387 23.8203 153.387 24.8594C153.387 25.9297 152.582 26.5 151.036 26.5H148.957V23.2109ZM148.957 31.5156V27.8828H151.387C153.036 27.8828 153.903 28.5 153.903 29.6797C153.903 30.875 153.067 31.5156 151.489 31.5156H148.957ZM157.505 33H159.184V21.1719H157.505V33ZM164.982 33.1641C167.466 33.1641 168.989 31.5 168.989 28.7422C168.989 26 167.458 24.3281 164.982 24.3281C162.497 24.3281 160.966 26 160.966 28.7422C160.966 31.5 162.489 33.1641 164.982 33.1641ZM164.982 31.6719C163.521 31.6719 162.7 30.6016 162.7 28.7422C162.7 26.8984 163.521 25.8203 164.982 25.8203C166.435 25.8203 167.263 26.8984 167.263 28.7422C167.263 30.5938 166.435 31.6719 164.982 31.6719ZM177.896 27.2734C177.677 25.5703 176.388 24.3281 174.255 24.3281C171.779 24.3281 170.271 25.9922 170.271 28.7188C170.271 31.4922 171.787 33.1641 174.263 33.1641C176.365 33.1641 177.677 31.9766 177.896 30.2656H176.263C176.044 31.1797 175.318 31.6641 174.255 31.6641C172.857 31.6641 171.99 30.5625 171.99 28.7188C171.99 26.9062 172.849 25.8281 174.255 25.8281C175.38 25.8281 176.068 26.4453 176.263 27.2734H177.896ZM181.388 28.0391H181.256V21.1719H179.576V33H181.256V29.9531L181.998 29.25L184.92 33H186.982L183.248 28.1406L186.748 24.4922H184.763L181.388 28.0391ZM187.686 26.8984C187.686 28.1641 188.436 28.8906 190.053 29.2734L191.537 29.6172C192.389 29.8203 192.787 30.1484 192.787 30.6562C192.787 31.3359 192.045 31.8047 190.998 31.8047C189.983 31.8047 189.358 31.3984 189.147 30.7422H187.467C187.615 32.25 188.936 33.1641 190.959 33.1641C192.99 33.1641 194.483 32.0938 194.483 30.4922C194.483 29.2422 193.725 28.5469 192.108 28.1719L190.693 27.8438C189.772 27.6328 189.342 27.3125 189.342 26.8047C189.342 26.1406 190.053 25.6953 190.99 25.6953C191.943 25.6953 192.553 26.0938 192.709 26.7188H194.318C194.154 25.2188 192.904 24.3281 190.99 24.3281C189.068 24.3281 187.686 25.3906 187.686 26.8984ZM196.717 22.375V24.5312H195.366V25.9453H196.717V30.75C196.717 32.3906 197.459 33.0469 199.327 33.0469C199.655 33.0469 199.967 33.0078 200.241 32.9609V31.5625C200.006 31.5859 199.858 31.6016 199.6 31.6016C198.764 31.6016 198.397 31.2109 198.397 30.3203V25.9453H200.241V24.5312H198.397V22.375H196.717ZM204.678 31.7266C203.764 31.7266 203.1 31.2812 203.1 30.5156C203.1 29.7656 203.632 29.3672 204.803 29.2891L206.882 29.1562V29.8672C206.882 30.9219 205.944 31.7266 204.678 31.7266ZM204.249 33.1406C205.366 33.1406 206.296 32.6562 206.803 31.8047H206.936V33H208.553V27.1875C208.553 25.3906 207.35 24.3281 205.217 24.3281C203.288 24.3281 201.913 25.2656 201.741 26.7266H203.366C203.553 26.125 204.202 25.7812 205.139 25.7812C206.288 25.7812 206.882 26.2891 206.882 27.1875V27.9219L204.577 28.0547C202.553 28.1797 201.413 29.0625 201.413 30.5938C201.413 32.1484 202.608 33.1406 204.249 33.1406ZM217.827 27.2734C217.608 25.5703 216.319 24.3281 214.187 24.3281C211.71 24.3281 210.202 25.9922 210.202 28.7188C210.202 31.4922 211.718 33.1641 214.194 33.1641C216.296 33.1641 217.608 31.9766 217.827 30.2656H216.194C215.976 31.1797 215.249 31.6641 214.187 31.6641C212.788 31.6641 211.921 30.5625 211.921 28.7188C211.921 26.9062 212.78 25.8281 214.187 25.8281C215.312 25.8281 215.999 26.4453 216.194 27.2734H217.827ZM221.32 28.0391H221.187V21.1719H219.507V33H221.187V29.9531L221.929 29.25L224.851 33H226.913L223.179 28.1406L226.679 24.4922H224.695L221.32 28.0391Z" fill="#211F6D"/>
<path fill-rule="evenodd" clip-rule="evenodd" d="M20.2961 17.1703C20 17.8545 20 18.727 20 20.472L20 27L20 33.528C20 35.273 20 36.1455 20.2961 36.8297C20.6597 37.6701 21.3299 38.3403 22.1703 38.7039C22.8545 39 23.727 39 25.472 39H32H38.528C40.273 39 41.1455 39 41.8297 38.7039C42.6701 38.3403 43.3403 37.6701 43.7039 36.8297C44 36.1455 44 35.273 44 33.528V27V20.472C44 18.727 44 17.8545 43.7039 17.1703C43.3403 16.3299 42.6701 15.6597 41.8297 15.2961C41.1455 15 40.273 15 38.528 15L32 15L25.472 15C23.727 15 22.8545 15 22.1703 15.2961C21.3299 15.6597 20.6597 16.3299 20.2961 17.1703ZM35.8313 25.3393C34.6336 25.3393 33.6625 24.3682 33.6625 23.1702C33.6625 21.9729 34.6336 21.0018 35.8313 21.0018C37.029 21.0018 38.0001 21.9729 38.0001 23.1702C38.0001 24.3682 37.029 25.3393 35.8313 25.3393ZM30.3357 23.17C30.3357 24.3672 29.3651 25.3379 28.1676 25.3379C26.9708 25.3379 26.0001 24.3672 26.0001 23.17C26.0001 21.9729 26.9708 21.0021 28.1676 21.0021C29.3651 21.0021 30.3357 21.9729 30.3357 23.17ZM35.8315 28.6692C34.6336 28.6692 33.6625 29.6403 33.6625 30.838C33.6625 32.0357 34.6336 33.0068 35.8315 33.0068C37.0289 33.0068 38 32.0357 38 30.838C38 29.6403 37.0289 28.6692 35.8315 28.6692ZM28.1678 28.6713C29.365 28.6713 30.3357 29.642 30.3357 30.8394C30.3357 32.0362 29.365 33.0068 28.1678 33.0068C26.9707 33.0068 26 32.0362 26 30.8394C26 29.642 26.9707 28.6713 28.1678 28.6713Z" fill="#211F6D"/>
<defs>
<filter id="filter0_dd" x="0" y="1" width="247" height="56" filterUnits="userSpaceOnUse" color-interpolation-filters="sRGB">
<feFlood flood-opacity="0" result="BackgroundImageFix"/>
<feColorMatrix in="SourceAlpha" type="matrix" values="0 0 0 0 0 0 0 0 0 0 0 0 0 0 0 0 0 0 127 0"/>
<feOffset dy="2"/>
<feGaussianBlur stdDeviation="2"/>
<feColorMatrix type="matrix" values="0 0 0 0 0 0 0 0 0 0 0 0 0 0 0 0 0 0 0.08 0"/>
<feBlend mode="normal" in2="BackgroundImageFix" result="effect1_dropShadow"/>
<feColorMatrix in="SourceAlpha" type="matrix" values="0 0 0 0 0 0 0 0 0 0 0 0 0 0 0 0 0 0 127 0"/>
<feOffset dy="2"/>
<feGaussianBlur stdDeviation="1"/>
<feColorMatrix type="matrix" values="0 0 0 0 0 0 0 0 0 0 0 0 0 0 0 0 0 0 0.06 0"/>
<feBlend mode="normal" in2="effect1_dropShadow" result="effect2_dropShadow"/>
<feBlend mode="normal" in="SourceGraphic" in2="effect2_dropShadow" result="shape"/>
</filter>
</defs>
</svg>
